<svg xmlns="http://www.w3.org/2000/svg" version="1.1" xmlns:xlink="http://www.w3.org/1999/xlink" xmlns:svgjs="http://svgjs.dev/svgjs" width="1440" height="560" preserveAspectRatio="none" viewBox="0 0 1440 560"><g mask="url(&quot;#SvgjsMask1000&quot;)" fill="none"><rect width="1440" height="560" x="0" y="0" fill="#0e2a47"></rect><path d="M58.77 -50.37L123.72 -12.87L123.72 62.13L58.77 99.63L-6.18 62.13L-6.18 -12.87zM123.72 287.13L188.68 324.63L188.68 399.63L123.72 437.13L58.77 399.63L58.77 324.63zM58.77 399.63L123.72 437.13L123.72 512.13L58.77 549.63L-6.18 512.13L-6.18 437.13zM123.72 512.13L188.68 549.63L188.68 624.63L123.72 662.13L58.77 624.63L58.77 549.63zM318.58 399.63L383.54 437.13L383.54 512.13L318.58 549.63L253.63 512.13L253.63 437.13zM383.54 512.13L448.49 549.63L448.49 624.63L383.54 662.13L318.58 624.63L318.58 549.63zM513.45 62.13L578.4 99.63L578.4 174.63L513.45 212.13L448.49 174.63L448.49 99.63zM448.49 399.63L513.45 437.13L513.45 512.13L448.49 549.63L383.54 512.13L383.54 437.13zM643.35 62.13L708.31 99.63L708.31 174.63L643.35 212.13L578.4 174.63L578.4 99.63zM643.35 512.13L708.31 549.63L708.31 624.63L643.35 662.13L578.4 624.63L578.4 549.63zM708.31 -50.37L773.26 -12.87L773.26 62.13L708.31 99.63L643.35 62.13L643.35 -12.87zM838.21 -50.37L903.17 -12.87L903.17 62.13L838.21 99.63L773.26 62.13L773.26 -12.87zM838.21 174.63L903.17 212.13L903.17 287.13L838.21 324.63L773.26 287.13L773.26 212.13zM903.17 287.13L968.12 324.63L968.12 399.63L903.17 437.13L838.21 399.63L838.21 324.63zM968.12 174.63L1033.08 212.13L1033.08 287.13L968.12 324.63L903.17 287.13L903.17 212.13zM1098.03 -50.37L1162.98 -12.87L1162.98 62.13L1098.03 99.63L1033.08 62.13L1033.08 -12.87zM1162.98 62.13L1227.94 99.63L1227.94 174.63L1162.98 212.13L1098.03 174.63L1098.03 99.63zM1098.03 399.63L1162.98 437.13L1162.98 512.13L1098.03 549.63L1033.08 512.13L1033.08 437.13zM1227.94 -50.37L1292.89 -12.87L1292.89 62.13L1227.94 99.63L1162.98 62.13L1162.98 -12.87zM1227.94 174.63L1292.89 212.13L1292.89 287.13L1227.94 324.63L1162.98 287.13L1162.98 212.13zM1292.89 287.13L1357.84 324.63L1357.84 399.63L1292.89 437.13L1227.94 399.63L1227.94 324.63zM1227.94 399.63L1292.89 437.13L1292.89 512.13L1227.94 549.63L1162.98 512.13L1162.98 437.13zM1292.89 512.13L1357.84 549.63L1357.84 624.63L1292.89 662.13L1227.94 624.63L1227.94 549.63zM1422.8 62.13L1487.75 99.63L1487.75 174.63L1422.8 212.13L1357.85 174.63L1357.85 99.63zM1422.8 287.13L1487.75 324.63L1487.75 399.63L1422.8 437.13L1357.85 399.63L1357.85 324.63zM1487.75 399.63L1552.71 437.13L1552.71 512.13L1487.75 549.63L1422.8 512.13L1422.8 437.13z" stroke="#03305d" stroke-width="2"></path><path d="M51.27 -50.37 a7.5 7.5 0 1 0 15 0 a7.5 7.5 0 1 0 -15 0zM116.22 -12.87 a7.5 7.5 0 1 0 15 0 a7.5 7.5 0 1 0 -15 0zM116.22 62.13 a7.5 7.5 0 1 0 15 0 a7.5 7.5 0 1 0 -15 0zM51.27 99.63 a7.5 7.5 0 1 0 15 0 a7.5 7.5 0 1 0 -15 0zM-13.68 62.13 a7.5 7.5 0 1 0 15 0 a7.5 7.5 0 1 0 -15 0zM-13.68 -12.87 a7.5 7.5 0 1 0 15 0 a7.5 7.5 0 1 0 -15 0zM116.22 287.13 a7.5 7.5 0 1 0 15 0 a7.5 7.5 0 1 0 -15 0zM181.18 324.63 a7.5 7.5 0 1 0 15 0 a7.5 7.5 0 1 0 -15 0zM181.18 399.63 a7.5 7.5 0 1 0 15 0 a7.5 7.5 0 1 0 -15 0zM116.22 437.13 a7.5 7.5 0 1 0 15 0 a7.5 7.5 0 1 0 -15 0zM51.27 399.63 a7.5 7.5 0 1 0 15 0 a7.5 7.5 0 1 0 -15 0zM51.27 324.63 a7.5 7.5 0 1 0 15 0 a7.5 7.5 0 1 0 -15 0zM116.22 512.13 a7.5 7.5 0 1 0 15 0 a7.5 7.5 0 1 0 -15 0zM51.27 549.63 a7.5 7.5 0 1 0 15 0 a7.5 7.5 0 1 0 -15 0zM-13.68 512.13 a7.5 7.5 0 1 0 15 0 a7.5 7.5 0 1 0 -15 0zM-13.68 437.13 a7.5 7.5 0 1 0 15 0 a7.5 7.5 0 1 0 -15 0zM181.18 549.63 a7.5 7.5 0 1 0 15 0 a7.5 7.5 0 1 0 -15 0zM181.18 624.63 a7.5 7.5 0 1 0 15 0 a7.5 7.5 0 1 0 -15 0zM116.22 662.13 a7.5 7.5 0 1 0 15 0 a7.5 7.5 0 1 0 -15 0zM51.27 624.63 a7.5 7.5 0 1 0 15 0 a7.5 7.5 0 1 0 -15 0zM311.08 399.63 a7.5 7.5 0 1 0 15 0 a7.5 7.5 0 1 0 -15 0zM376.04 437.13 a7.5 7.5 0 1 0 15 0 a7.5 7.5 0 1 0 -15 0zM376.04 512.13 a7.5 7.5 0 1 0 15 0 a7.5 7.5 0 1 0 -15 0zM311.08 549.63 a7.5 7.5 0 1 0 15 0 a7.5 7.5 0 1 0 -15 0zM246.13 512.13 a7.5 7.5 0 1 0 15 0 a7.5 7.5 0 1 0 -15 0zM246.13 437.13 a7.5 7.5 0 1 0 15 0 a7.5 7.5 0 1 0 -15 0zM440.99 549.63 a7.5 7.5 0 1 0 15 0 a7.5 7.5 0 1 0 -15 0zM440.99 624.63 a7.5 7.5 0 1 0 15 0 a7.5 7.5 0 1 0 -15 0zM376.04 662.13 a7.5 7.5 0 1 0 15 0 a7.5 7.5 0 1 0 -15 0zM311.08 624.63 a7.5 7.5 0 1 0 15 0 a7.5 7.5 0 1 0 -15 0zM505.95 62.13 a7.5 7.5 0 1 0 15 0 a7.5 7.5 0 1 0 -15 0zM570.9 99.63 a7.5 7.5 0 1 0 15 0 a7.5 7.5 0 1 0 -15 0zM570.9 174.63 a7.5 7.5 0 1 0 15 0 a7.5 7.5 0 1 0 -15 0zM505.95 212.13 a7.5 7.5 0 1 0 15 0 a7.5 7.5 0 1 0 -15 0zM440.99 174.63 a7.5 7.5 0 1 0 15 0 a7.5 7.5 0 1 0 -15 0zM440.99 99.63 a7.5 7.5 0 1 0 15 0 a7.5 7.5 0 1 0 -15 0zM440.99 399.63 a7.5 7.5 0 1 0 15 0 a7.5 7.5 0 1 0 -15 0zM505.95 437.13 a7.5 7.5 0 1 0 15 0 a7.5 7.5 0 1 0 -15 0zM505.95 512.13 a7.5 7.5 0 1 0 15 0 a7.5 7.5 0 1 0 -15 0zM635.85 62.13 a7.5 7.5 0 1 0 15 0 a7.5 7.5 0 1 0 -15 0zM700.81 99.63 a7.5 7.5 0 1 0 15 0 a7.5 7.5 0 1 0 -15 0zM700.81 174.63 a7.5 7.5 0 1 0 15 0 a7.5 7.5 0 1 0 -15 0zM635.85 212.13 a7.5 7.5 0 1 0 15 0 a7.5 7.5 0 1 0 -15 0zM635.85 512.13 a7.5 7.5 0 1 0 15 0 a7.5 7.5 0 1 0 -15 0zM700.81 549.63 a7.5 7.5 0 1 0 15 0 a7.5 7.5 0 1 0 -15 0zM700.81 624.63 a7.5 7.5 0 1 0 15 0 a7.5 7.5 0 1 0 -15 0zM635.85 662.13 a7.5 7.5 0 1 0 15 0 a7.5 7.5 0 1 0 -15 0zM570.9 624.63 a7.5 7.5 0 1 0 15 0 a7.5 7.5 0 1 0 -15 0zM570.9 549.63 a7.5 7.5 0 1 0 15 0 a7.5 7.5 0 1 0 -15 0zM700.81 -50.37 a7.5 7.5 0 1 0 15 0 a7.5 7.5 0 1 0 -15 0zM765.76 -12.87 a7.5 7.5 0 1 0 15 0 a7.5 7.5 0 1 0 -15 0zM765.76 62.13 a7.5 7.5 0 1 0 15 0 a7.5 7.5 0 1 0 -15 0zM635.85 -12.87 a7.5 7.5 0 1 0 15 0 a7.5 7.5 0 1 0 -15 0zM830.71 -50.37 a7.5 7.5 0 1 0 15 0 a7.5 7.5 0 1 0 -15 0zM895.67 -12.87 a7.5 7.5 0 1 0 15 0 a7.5 7.5 0 1 0 -15 0zM895.67 62.13 a7.5 7.5 0 1 0 15 0 a7.5 7.5 0 1 0 -15 0zM830.71 99.63 a7.5 7.5 0 1 0 15 0 a7.5 7.5 0 1 0 -15 0zM830.71 174.63 a7.5 7.5 0 1 0 15 0 a7.5 7.5 0 1 0 -15 0zM895.67 212.13 a7.5 7.5 0 1 0 15 0 a7.5 7.5 0 1 0 -15 0zM895.67 287.13 a7.5 7.5 0 1 0 15 0 a7.5 7.5 0 1 0 -15 0zM830.71 324.63 a7.5 7.5 0 1 0 15 0 a7.5 7.5 0 1 0 -15 0zM765.76 287.13 a7.5 7.5 0 1 0 15 0 a7.5 7.5 0 1 0 -15 0zM765.76 212.13 a7.5 7.5 0 1 0 15 0 a7.5 7.5 0 1 0 -15 0zM960.62 324.63 a7.5 7.5 0 1 0 15 0 a7.5 7.5 0 1 0 -15 0zM960.62 399.63 a7.5 7.5 0 1 0 15 0 a7.5 7.5 0 1 0 -15 0zM895.67 437.13 a7.5 7.5 0 1 0 15 0 a7.5 7.5 0 1 0 -15 0zM830.71 399.63 a7.5 7.5 0 1 0 15 0 a7.5 7.5 0 1 0 -15 0zM960.62 174.63 a7.5 7.5 0 1 0 15 0 a7.5 7.5 0 1 0 -15 0zM1025.58 212.13 a7.5 7.5 0 1 0 15 0 a7.5 7.5 0 1 0 -15 0zM1025.58 287.13 a7.5 7.5 0 1 0 15 0 a7.5 7.5 0 1 0 -15 0zM1090.53 -50.37 a7.5 7.5 0 1 0 15 0 a7.5 7.5 0 1 0 -15 0zM1155.48 -12.87 a7.5 7.5 0 1 0 15 0 a7.5 7.5 0 1 0 -15 0zM1155.48 62.13 a7.5 7.5 0 1 0 15 0 a7.5 7.5 0 1 0 -15 0zM1090.53 99.63 a7.5 7.5 0 1 0 15 0 a7.5 7.5 0 1 0 -15 0zM1025.58 62.13 a7.5 7.5 0 1 0 15 0 a7.5 7.5 0 1 0 -15 0zM1025.58 -12.87 a7.5 7.5 0 1 0 15 0 a7.5 7.5 0 1 0 -15 0zM1220.44 99.63 a7.5 7.5 0 1 0 15 0 a7.5 7.5 0 1 0 -15 0zM1220.44 174.63 a7.5 7.5 0 1 0 15 0 a7.5 7.5 0 1 0 -15 0zM1155.48 212.13 a7.5 7.5 0 1 0 15 0 a7.5 7.5 0 1 0 -15 0zM1090.53 174.63 a7.5 7.5 0 1 0 15 0 a7.5 7.5 0 1 0 -15 0zM1090.53 399.63 a7.5 7.5 0 1 0 15 0 a7.5 7.5 0 1 0 -15 0zM1155.48 437.13 a7.5 7.5 0 1 0 15 0 a7.5 7.5 0 1 0 -15 0zM1155.48 512.13 a7.5 7.5 0 1 0 15 0 a7.5 7.5 0 1 0 -15 0zM1090.53 549.63 a7.5 7.5 0 1 0 15 0 a7.5 7.5 0 1 0 -15 0zM1025.58 512.13 a7.5 7.5 0 1 0 15 0 a7.5 7.5 0 1 0 -15 0zM1025.58 437.13 a7.5 7.5 0 1 0 15 0 a7.5 7.5 0 1 0 -15 0zM1220.44 -50.37 a7.5 7.5 0 1 0 15 0 a7.5 7.5 0 1 0 -15 0zM1285.39 -12.87 a7.5 7.5 0 1 0 15 0 a7.5 7.5 0 1 0 -15 0zM1285.39 62.13 a7.5 7.5 0 1 0 15 0 a7.5 7.5 0 1 0 -15 0zM1285.39 212.13 a7.5 7.5 0 1 0 15 0 a7.5 7.5 0 1 0 -15 0zM1285.39 287.13 a7.5 7.5 0 1 0 15 0 a7.5 7.5 0 1 0 -15 0zM1220.44 324.63 a7.5 7.5 0 1 0 15 0 a7.5 7.5 0 1 0 -15 0zM1155.48 287.13 a7.5 7.5 0 1 0 15 0 a7.5 7.5 0 1 0 -15 0zM1350.34 324.63 a7.5 7.5 0 1 0 15 0 a7.5 7.5 0 1 0 -15 0zM1350.34 399.63 a7.5 7.5 0 1 0 15 0 a7.5 7.5 0 1 0 -15 0zM1285.39 437.13 a7.5 7.5 0 1 0 15 0 a7.5 7.5 0 1 0 -15 0zM1220.44 399.63 a7.5 7.5 0 1 0 15 0 a7.5 7.5 0 1 0 -15 0zM1285.39 512.13 a7.5 7.5 0 1 0 15 0 a7.5 7.5 0 1 0 -15 0zM1220.44 549.63 a7.5 7.5 0 1 0 15 0 a7.5 7.5 0 1 0 -15 0zM1350.34 549.63 a7.5 7.5 0 1 0 15 0 a7.5 7.5 0 1 0 -15 0zM1350.34 624.63 a7.5 7.5 0 1 0 15 0 a7.5 7.5 0 1 0 -15 0zM1285.39 662.13 a7.5 7.5 0 1 0 15 0 a7.5 7.5 0 1 0 -15 0zM1220.44 624.63 a7.5 7.5 0 1 0 15 0 a7.5 7.5 0 1 0 -15 0zM1415.3 62.13 a7.5 7.5 0 1 0 15 0 a7.5 7.5 0 1 0 -15 0zM1480.25 99.63 a7.5 7.5 0 1 0 15 0 a7.5 7.5 0 1 0 -15 0zM1480.25 174.63 a7.5 7.5 0 1 0 15 0 a7.5 7.5 0 1 0 -15 0zM1415.3 212.13 a7.5 7.5 0 1 0 15 0 a7.5 7.5 0 1 0 -15 0zM1350.35 174.63 a7.5 7.5 0 1 0 15 0 a7.5 7.5 0 1 0 -15 0zM1350.35 99.63 a7.5 7.5 0 1 0 15 0 a7.5 7.5 0 1 0 -15 0zM1415.3 287.13 a7.5 7.5 0 1 0 15 0 a7.5 7.5 0 1 0 -15 0zM1480.25 324.63 a7.5 7.5 0 1 0 15 0 a7.5 7.5 0 1 0 -15 0zM1480.25 399.63 a7.5 7.5 0 1 0 15 0 a7.5 7.5 0 1 0 -15 0zM1415.3 437.13 a7.5 7.5 0 1 0 15 0 a7.5 7.5 0 1 0 -15 0zM1350.35 399.63 a7.5 7.5 0 1 0 15 0 a7.5 7.5 0 1 0 -15 0zM1350.35 324.63 a7.5 7.5 0 1 0 15 0 a7.5 7.5 0 1 0 -15 0zM1545.21 437.13 a7.5 7.5 0 1 0 15 0 a7.5 7.5 0 1 0 -15 0zM1545.21 512.13 a7.5 7.5 0 1 0 15 0 a7.5 7.5 0 1 0 -15 0zM1480.25 549.63 a7.5 7.5 0 1 0 15 0 a7.5 7.5 0 1 0 -15 0zM1415.3 512.13 a7.5 7.5 0 1 0 15 0 a7.5 7.5 0 1 0 -15 0z" fill="#03305d"></path><path d="M40.88 -18.31L84.18 6.69L84.18 56.69L40.88 81.69L-2.42 56.69L-2.42 6.69zM84.18 56.69L127.49 81.69L127.49 131.69L84.18 156.69L40.88 131.69L40.88 81.69zM40.88 131.69L84.18 156.69L84.18 206.69L40.88 231.69L-2.42 206.69L-2.42 156.69zM84.18 206.69L127.49 231.69L127.49 281.69L84.18 306.69L40.88 281.69L40.88 231.69zM40.88 431.69L84.18 456.69L84.18 506.69L40.88 531.69L-2.42 506.69L-2.42 456.69zM170.79 56.69L214.09 81.69L214.09 131.69L170.79 156.69L127.49 131.69L127.49 81.69zM127.49 131.69L170.79 156.69L170.79 206.69L127.49 231.69L84.18 206.69L84.18 156.69zM170.79 206.69L214.09 231.69L214.09 281.69L170.79 306.69L127.49 281.69L127.49 231.69zM170.79 506.69L214.09 531.69L214.09 581.69L170.79 606.69L127.49 581.69L127.49 531.69zM214.09 -18.31L257.39 6.69L257.39 56.69L214.09 81.69L170.79 56.69L170.79 6.69zM214.09 281.69L257.39 306.69L257.39 356.69L214.09 381.69L170.79 356.69L170.79 306.69zM257.39 356.69L300.69 381.69L300.69 431.69L257.39 456.69L214.09 431.69L214.09 381.69zM214.09 431.69L257.39 456.69L257.39 506.69L214.09 531.69L170.79 506.69L170.79 456.69zM300.69 -18.31L344 6.69L344 56.69L300.69 81.69L257.39 56.69L257.39 6.69zM344 356.69L387.3 381.69L387.3 431.69L344 456.69L300.69 431.69L300.69 381.69zM344 506.69L387.3 531.69L387.3 581.69L344 606.69L300.69 581.69L300.69 531.69zM387.3 -18.31L430.6 6.69L430.6 56.69L387.3 81.69L344 56.69L344 6.69zM430.6 56.69L473.91 81.69L473.91 131.69L430.6 156.69L387.3 131.69L387.3 81.69zM387.3 131.69L430.6 156.69L430.6 206.69L387.3 231.69L344 206.69L344 156.69zM430.6 356.69L473.91 381.69L473.91 431.69L430.6 456.69L387.3 431.69L387.3 381.69zM387.3 431.69L430.6 456.69L430.6 506.69L387.3 531.69L344 506.69L344 456.69zM430.6 506.69L473.91 531.69L473.91 581.69L430.6 606.69L387.3 581.69L387.3 531.69zM517.21 56.69L560.51 81.69L560.51 131.69L517.21 156.69L473.91 131.69L473.91 81.69zM473.91 281.69L517.21 306.69L517.21 356.69L473.91 381.69L430.6 356.69L430.6 306.69zM517.21 356.69L560.51 381.69L560.51 431.69L517.21 456.69L473.91 431.69L473.91 381.69zM473.91 431.69L517.21 456.69L517.21 506.69L473.91 531.69L430.6 506.69L430.6 456.69zM517.21 506.69L560.51 531.69L560.51 581.69L517.21 606.69L473.91 581.69L473.91 531.69zM603.81 56.69L647.12 81.69L647.12 131.69L603.81 156.69L560.51 131.69L560.51 81.69zM560.51 431.69L603.81 456.69L603.81 506.69L560.51 531.69L517.21 506.69L517.21 456.69zM690.42 56.69L733.72 81.69L733.72 131.69L690.42 156.69L647.12 131.69L647.12 81.69zM647.12 131.69L690.42 156.69L690.42 206.69L647.12 231.69L603.81 206.69L603.81 156.69zM647.12 281.69L690.42 306.69L690.42 356.69L647.12 381.69L603.81 356.69L603.81 306.69zM647.12 431.69L690.42 456.69L690.42 506.69L647.12 531.69L603.81 506.69L603.81 456.69zM733.72 131.69L777.02 156.69L777.02 206.69L733.72 231.69L690.42 206.69L690.42 156.69zM863.63 56.69L906.93 81.69L906.93 131.69L863.63 156.69L820.33 131.69L820.33 81.69zM820.33 131.69L863.63 156.69L863.63 206.69L820.33 231.69L777.02 206.69L777.02 156.69zM863.63 206.69L906.93 231.69L906.93 281.69L863.63 306.69L820.33 281.69L820.33 231.69zM863.63 506.69L906.93 531.69L906.93 581.69L863.63 606.69L820.33 581.69L820.33 531.69zM950.23 56.69L993.54 81.69L993.54 131.69L950.23 156.69L906.93 131.69L906.93 81.69zM950.23 206.69L993.54 231.69L993.54 281.69L950.23 306.69L906.93 281.69L906.93 231.69zM906.93 281.69L950.23 306.69L950.23 356.69L906.93 381.69L863.63 356.69L863.63 306.69zM1036.84 56.69L1080.14 81.69L1080.14 131.69L1036.84 156.69L993.54 131.69L993.54 81.69zM993.54 131.69L1036.84 156.69L1036.84 206.69L993.54 231.69L950.23 206.69L950.23 156.69zM993.54 431.69L1036.84 456.69L1036.84 506.69L993.54 531.69L950.23 506.69L950.23 456.69zM1036.84 506.69L1080.14 531.69L1080.14 581.69L1036.84 606.69L993.54 581.69L993.54 531.69zM1080.14 131.69L1123.44 156.69L1123.44 206.69L1080.14 231.69L1036.84 206.69L1036.84 156.69zM1080.14 431.69L1123.44 456.69L1123.44 506.69L1080.14 531.69L1036.84 506.69L1036.84 456.69zM1123.44 506.69L1166.75 531.69L1166.75 581.69L1123.44 606.69L1080.14 581.69L1080.14 531.69zM1166.75 431.69L1210.05 456.69L1210.05 506.69L1166.75 531.69L1123.44 506.69L1123.44 456.69zM1210.05 506.69L1253.35 531.69L1253.35 581.69L1210.05 606.69L1166.75 581.69L1166.75 531.69zM1253.35 281.69L1296.65 306.69L1296.65 356.69L1253.35 381.69L1210.05 356.69L1210.05 306.69zM1296.65 356.69L1339.96 381.69L1339.96 431.69L1296.65 456.69L1253.35 431.69L1253.35 381.69zM1253.35 431.69L1296.65 456.69L1296.65 506.69L1253.35 531.69L1210.05 506.69L1210.05 456.69zM1339.96 131.69L1383.26 156.69L1383.26 206.69L1339.96 231.69L1296.65 206.69L1296.65 156.69zM1339.96 431.69L1383.26 456.69L1383.26 506.69L1339.96 531.69L1296.65 506.69L1296.65 456.69zM1469.86 56.69L1513.17 81.69L1513.17 131.69L1469.86 156.69L1426.56 131.69L1426.56 81.69zM1469.86 206.69L1513.17 231.69L1513.17 281.69L1469.86 306.69L1426.56 281.69L1426.56 231.69zM1426.56 281.69L1469.86 306.69L1469.86 356.69L1426.56 381.69L1383.26 356.69L1383.26 306.69zM1469.86 356.69L1513.17 381.69L1513.17 431.69L1469.86 456.69L1426.56 431.69L1426.56 381.69z" stroke="rgba(6, 80, 156, 0.93)" stroke-width="2"></path></g><defs><mask id="SvgjsMask1000"><rect width="1440" height="560" fill="#ffffff"></rect></mask></defs></svg>