<svg xmlns="http://www.w3.org/2000/svg" version="1.1" xmlns:xlink="http://www.w3.org/1999/xlink" xmlns:svgjs="http://svgjs.dev/svgjs" width="1440" height="250" preserveAspectRatio="none" viewBox="0 0 1440 250"><g mask="url(&quot;#SvgjsMask1000&quot;)" fill="none"><rect width="1440" height="250" x="0" y="0" fill="#0e2a47"></rect><path d="M34 250L284 0L476 0L226 250z" fill="url(&quot;#SvgjsLinearGradient1001&quot;)"></path><path d="M270.6 250L520.6 0L649.6 0L399.6 250z" fill="url(&quot;#SvgjsLinearGradient1001&quot;)"></path><path d="M490.20000000000005 250L740.2 0L1070.2 0L820.2 250z" fill="url(&quot;#SvgjsLinearGradient1001&quot;)"></path><path d="M741.8000000000001 250L991.8000000000001 0L1296.3000000000002 0L1046.3000000000002 250z" fill="url(&quot;#SvgjsLinearGradient1001&quot;)"></path><path d="M1425 250L1175 0L866 0L1116 250z" fill="url(&quot;#SvgjsLinearGradient1002&quot;)"></path><path d="M1183.4 250L933.4000000000001 0L759.4000000000001 0L1009.4000000000001 250z" fill="url(&quot;#SvgjsLinearGradient1002&quot;)"></path><path d="M948.8 250L698.8 0L347.79999999999995 0L597.8 250z" fill="url(&quot;#SvgjsLinearGradient1002&quot;)"></path><path d="M682.1999999999999 250L432.19999999999993 0L358.69999999999993 0L608.6999999999999 250z" fill="url(&quot;#SvgjsLinearGradient1002&quot;)"></path><path d="M1298.1891087338033 250L1440 108.18910873380324L1440 250z" fill="url(&quot;#SvgjsLinearGradient1001&quot;)"></path><path d="M0 250L141.81089126619676 250L 0 108.18910873380324z" fill="url(&quot;#SvgjsLinearGradient1002&quot;)"></path></g><defs><mask id="SvgjsMask1000"><rect width="1440" height="250" fill="#ffffff"></rect></mask><linearGradient x1="0%" y1="100%" x2="100%" y2="0%" id="SvgjsLinearGradient1001"><stop stop-color="rgba(15, 70, 185, 0.2)" offset="0"></stop><stop stop-opacity="0" stop-color="rgba(15, 70, 185, 0.2)" offset="0.66"></stop></linearGradient><linearGradient x1="100%" y1="100%" x2="0%" y2="0%" id="SvgjsLinearGradient1002"><stop stop-color="rgba(15, 70, 185, 0.2)" offset="0"></stop><stop stop-opacity="0" stop-color="rgba(15, 70, 185, 0.2)" offset="0.66"></stop></linearGradient></defs></svg>