<svg xmlns="http://www.w3.org/2000/svg" version="1.1" xmlns:xlink="http://www.w3.org/1999/xlink" xmlns:svgjs="http://svgjs.dev/svgjs" width="1440" height="250" preserveAspectRatio="none" viewBox="0 0 1440 250"><g mask="url(&quot;#SvgjsMask1008&quot;)" fill="none"><rect width="1440" height="250" x="0" y="0" fill="url(&quot;#SvgjsLinearGradient1009&quot;)"></rect><path d="M40 250L290 0L549.5 0L299.5 250z" fill="url(&quot;#SvgjsLinearGradient1010&quot;)"></path><path d="M268.6 250L518.6 0L859.1 0L609.1 250z" fill="url(&quot;#SvgjsLinearGradient1010&quot;)"></path><path d="M503.20000000000005 250L753.2 0L856.7 0L606.7 250z" fill="url(&quot;#SvgjsLinearGradient1010&quot;)"></path><path d="M732.8000000000001 250L982.8000000000001 0L1252.8000000000002 0L1002.8000000000001 250z" fill="url(&quot;#SvgjsLinearGradient1010&quot;)"></path><path d="M1418 250L1168 0L881.5 0L1131.5 250z" fill="url(&quot;#SvgjsLinearGradient1011&quot;)"></path><path d="M1162.4 250L912.4000000000001 0L820.9000000000001 0L1070.9 250z" fill="url(&quot;#SvgjsLinearGradient1011&quot;)"></path><path d="M960.8 250L710.8 0L616.3 0L866.3 250z" fill="url(&quot;#SvgjsLinearGradient1011&quot;)"></path><path d="M688.1999999999999 250L438.19999999999993 0L364.69999999999993 0L614.6999999999999 250z" fill="url(&quot;#SvgjsLinearGradient1011&quot;)"></path><path d="M1247.6453006724655 250L1440 57.64530067246557L1440 250z" fill="url(&quot;#SvgjsLinearGradient1010&quot;)"></path><path d="M0 250L192.35469932753443 250L 0 57.64530067246557z" fill="url(&quot;#SvgjsLinearGradient1011&quot;)"></path></g><defs><mask id="SvgjsMask1008"><rect width="1440" height="250" fill="#ffffff"></rect></mask><linearGradient x1="20.66%" y1="-119%" x2="79.34%" y2="219%" gradientUnits="userSpaceOnUse" id="SvgjsLinearGradient1009"><stop stop-color="#0e2a47" offset="0"></stop><stop stop-color="rgba(1, 0, 48, 1)" offset="1"></stop></linearGradient><linearGradient x1="0%" y1="100%" x2="100%" y2="0%" id="SvgjsLinearGradient1010"><stop stop-color="rgba(15, 70, 185, 0.2)" offset="0"></stop><stop stop-opacity="0" stop-color="rgba(15, 70, 185, 0.2)" offset="0.66"></stop></linearGradient><linearGradient x1="100%" y1="100%" x2="0%" y2="0%" id="SvgjsLinearGradient1011"><stop stop-color="rgba(15, 70, 185, 0.2)" offset="0"></stop><stop stop-opacity="0" stop-color="rgba(15, 70, 185, 0.2)" offset="0.66"></stop></linearGradient></defs></svg>