<svg xmlns="http://www.w3.org/2000/svg" version="1.1" xmlns:xlink="http://www.w3.org/1999/xlink" xmlns:svgjs="http://svgjs.dev/svgjs" width="1440" height="560" preserveAspectRatio="none" viewBox="0 0 1440 560"><g mask="url(&quot;#SvgjsMask1008&quot;)" fill="none"><rect width="1440" height="560" x="0" y="0" fill="url(&quot;#SvgjsLinearGradient1009&quot;)"></rect><path d="M1440 0L883.7 0L1440 256.93z" fill="rgba(255, 255, 255, .1)"></path><path d="M883.7 0L1440 256.93L1440 322.82L493.48 0z" fill="rgba(255, 255, 255, .075)"></path><path d="M493.48 0L1440 322.82L1440 443.12L227.85000000000002 0z" fill="rgba(255, 255, 255, .05)"></path><path d="M227.8499999999999 0L1440 443.12L1440 456.08L85.59999999999991 0z" fill="rgba(255, 255, 255, .025)"></path><path d="M0 560L155.91 560L0 438.9z" fill="rgba(0, 0, 0, .1)"></path><path d="M0 438.9L155.91 560L421.14 560L0 288.79999999999995z" fill="rgba(0, 0, 0, .075)"></path><path d="M0 288.8L421.14 560L914.8399999999999 560L0 284.24z" fill="rgba(0, 0, 0, .05)"></path><path d="M0 284.24L914.8399999999999 560L973.2499999999999 560L0 86.43z" fill="rgba(0, 0, 0, .025)"></path></g><defs><mask id="SvgjsMask1008"><rect width="1440" height="560" fill="#ffffff"></rect></mask><linearGradient x1="15.28%" y1="-39.29%" x2="84.72%" y2="139.29%" gradientUnits="userSpaceOnUse" id="SvgjsLinearGradient1009"><stop stop-color="#0e2a47" offset="0"></stop><stop stop-color="rgba(1, 0, 48, 1)" offset="1"></stop></linearGradient></defs></svg>